<?xml version="1.0" encoding="utf-8"?>
<!-- Generator: Adobe Illustrator 16.0.0, SVG Export Plug-In . SVG Version: 6.00 Build 0)  -->
<!DOCTYPE svg PUBLIC "-//W3C//DTD SVG 1.1//EN" "http://www.w3.org/Graphics/SVG/1.1/DTD/svg11.dtd">
<svg version="1.1" xmlns="http://www.w3.org/2000/svg" xmlns:xlink="http://www.w3.org/1999/xlink" x="0px" y="0px" width="310px"
	 height="100px" viewBox="0 0 310 100" style="enable-background:new 0 0 310 100;" xml:space="preserve">
<style type="text/css">
<![CDATA[
	.st0{fill:#FFFFFF;}
]]>
</style>
<g id="Layer_1">
	<g>
		<g>
			<g>
				<path class="st0" d="M1.3,16.9L72,17.2v20.9c0.2,1.4-1.5,1.1-1.8-0.2c-0.7-3.4-6.6-11.6-7.7-12.3H32.9v25.5h24.8
					c1.8-0.7,4.7-5.7,6.6-10.7c0.7-1.8,2.1-0.7,2-0.2c-0.5,8.2-0.3,23.2-0.2,29.3c0,2.3-1.1,3-1.8,0.9c-0.7-2-4.1-9.1-6.4-10.9h-25
					v29.1h32.1c1.8-1.4,6.5-11.6,7.1-14.3c0.2-1.1,2.1-1.1,2.1-0.2v24.1l-50.3-0.7c-10.2,0-12.7,0-22.5,0.9
					c-1.6,0.1-1.6-2.2-0.5-2.7c11.1-5.2,12.5-2.3,12.5-18.2V34c0-11.8-3.4-11.4-12.5-14.8C-0.2,18.9,0.3,17.2,1.3,16.9z"/>
				<path class="st0" d="M89.3,16.5l33,0.7L147.5,69l26.2-51.2c0,0,20.5,0,22.3,0c1.8,0,8.9-0.7,10-0.9c1.1-0.2,1.4,2,0.5,2.5
					c-0.9,0.5-11.8,5-13,6.6l6.6,63.2c0.9,2,12,6.7,13.9,7.1c1.4,0.2,0.9,1.9,0.2,1.8c-7.1-0.5-38.9-0.5-45.7,0
					c-0.7,0-3.6-1.1-0.5-2c3.6-1.1,10.9-3.6,12.5-6.4l-4.5-55l-31.4,63.5h-5.2l-28.7-62.1l-5,53.2c2,4.1,11.6,5.9,12.7,6.4
					c1.1,0.4,1.1,2.1,0.2,2c-6.8-0.7-32.3-0.2-35,0.2c-1.4,0.2-3.8-1.5-0.7-2.5c8.9-2.8,11.8-0.2,13.9-20.9l5.5-45.5
					c0.7-7.5-8.9-8.4-13.2-10C88.4,18.8,87.7,16.5,89.3,16.5z"/>
				<path class="st0" d="M279.5,37.4l0.7-20.9c-9.3-1.1-32.4-4.9-51.4,9.1c-19.8,14.5-25.2,51.7,0.5,68.5
					c17.1,11.1,48.2,3.4,50.5,2.3c0.9-0.5,2.1-1.1,2.1-2s0.2-19.6,0.2-20.5s-1.4-0.7-2.1,0.2c-0.7,0.9-4.2,14.2-7.5,15.9
					c-7.3,3.7-24.8,6.1-33.9-12.5c-6-12.2-6.2-28.8,2.5-43.9c9-15.7,25.9-11.2,28-10c3.9,2.3,6.2,7.3,8,13.6
					C277.7,39.7,279.3,39.2,279.5,37.4z"/>
				<path class="st0" d="M285.9,5.8c9.6-8.9,18-5.7,20.9-2.7c3,3,4.9,9.4-2,16.4c-3.4,3.4-10.5,8.9-10.5,8.9s11.1,0,10.9,0
					c1.1-0.2,3.1-4.1,3.9-5.2c0.5-0.7,0.9-0.5,0.9,0.5c0,0.9,0,11.6,0,11.6c-3.2-0.2-22.1-0.2-25-0.2v-3.9c5-3.9,9.8-9.3,13.4-13.9
					c3.6-4.6,3-16.7-9.8-9.6C286.6,8.8,285.2,7.6,285.9,5.8z"/>
			</g>
		</g>
		<path class="st0" d="M294,80.3c3.5,0,6.2,2.8,6.2,6.3c0,3.6-2.8,6.4-6.3,6.4c-3.5,0-6.3-2.8-6.3-6.4
			C287.7,83.1,290.5,80.3,294,80.3L294,80.3z M294,81.3c-2.8,0-5.1,2.4-5.1,5.4c0,3,2.3,5.4,5.1,5.4c2.8,0,5.1-2.4,5.1-5.4
			C299.1,83.7,296.8,81.3,294,81.3L294,81.3z M292.8,90.3h-1.1v-7.1c0.6-0.1,1.2-0.2,2-0.2c1.1,0,1.8,0.2,2.2,0.5
			c0.4,0.3,0.6,0.8,0.6,1.5c0,0.9-0.6,1.5-1.4,1.7v0.1c0.6,0.1,1,0.7,1.2,1.7c0.2,1.1,0.3,1.5,0.5,1.7h-1.2
			c-0.2-0.2-0.3-0.9-0.5-1.8c-0.2-0.9-0.6-1.2-1.5-1.2h-0.8V90.3z M292.8,86.4h0.8c0.9,0,1.7-0.3,1.7-1.2c0-0.6-0.5-1.2-1.7-1.2
			c-0.4,0-0.6,0-0.8,0.1V86.4z"/>
		<path class="st0" d="M294,80.3c3.5,0,6.2,2.8,6.2,6.3c0,3.6-2.8,6.4-6.3,6.4c-3.5,0-6.3-2.8-6.3-6.4
			C287.7,83.1,290.5,80.3,294,80.3L294,80.3z M294,81.3c-2.8,0-5.1,2.4-5.1,5.4c0,3,2.3,5.4,5.1,5.4c2.8,0,5.1-2.4,5.1-5.4
			C299.1,83.7,296.8,81.3,294,81.3L294,81.3z M292.8,90.3h-1.1v-7.1c0.6-0.1,1.2-0.2,2-0.2c1.1,0,1.8,0.2,2.2,0.5
			c0.4,0.3,0.6,0.8,0.6,1.5c0,0.9-0.6,1.5-1.4,1.7v0.1c0.6,0.1,1,0.7,1.2,1.7c0.2,1.1,0.3,1.5,0.5,1.7h-1.2
			c-0.2-0.2-0.3-0.9-0.5-1.8c-0.2-0.9-0.6-1.2-1.5-1.2h-0.8V90.3z M292.8,86.4h0.8c0.9,0,1.7-0.3,1.7-1.2c0-0.6-0.5-1.2-1.7-1.2
			c-0.4,0-0.6,0-0.8,0.1V86.4z"/>
	</g>
</g>
<g id="Layer_2">
</g>
</svg>
