<?xml version="1.0" standalone="no"?>
<!DOCTYPE svg PUBLIC "-//W3C//DTD SVG 1.1//EN" "http://www.w3.org/Graphics/SVG/1.1/DTD/svg11.dtd">
<svg xmlns="http://www.w3.org/2000/svg">
<metadata>Generated by Fontastic.me</metadata>
<defs>
<font id="hrwar-icons" horiz-adv-x="512">
<font-face font-family="hrwar-icons" units-per-em="512" ascent="480" descent="-32"/>
<missing-glyph horiz-adv-x="512" />

<glyph unicode="&#57344;" d="M452 294c-15 0-27-12-27-26 0-11 7-21 16-25-5-30-35-170-204-166-8 0-190 2-190 175 0 5 8 134 158 134 0 0 1 0 2 0 0-17 14-31 31-31 10 0 19 5 24 13 10-6 19-14 27-24 18-22 23-53 17-90-2-6-24-64-97-52-2 0-48 7-52 66 12 4 20 14 20 26 0 15-12 27-27 27-15 0-27-12-27-27 0-12 9-23 21-26 3-71 63-80 63-80 87-13 111 61 112 62l0 1c8 41 1 76-19 102-3 4-7 7-10 10l68-23c0-7 7-13 14-13 8 0 15 6 15 14 0 8-7 15-15 15-3 0-7-1-9-4l-95 32c0 0 1 1 1 2 0 17-14 31-31 31-11 0-21-6-26-14l-96 32c0 8-7 14-14 14-8 0-15-6-15-14 0-8 7-15 15-15 3 0 7 1 9 4l75-25c-145-11-152-145-153-147 0-187 202-189 204-189 2 0 3 0 5 0 173 0 207 146 212 178 14 1 25 13 25 27 0 14-12 26-27 26z m-319 0c0 10 8 17 17 17 9 0 17-7 17-17 0-9-8-16-17-16-9 0-17 7-17 16z m319-43c-9 0-17 7-17 17 0 9 8 16 17 16 9 0 16-7 16-16 0-10-7-17-16-17z"/>
<glyph unicode="&#57345;" d="M471 371l1 22c0 0-198 2-214 2-16 0-26 8-31 15-7 8-13 11-18 13-4 3-165 0-165 0l2-82c-9 0-14 0-14 0l10-253 431 0 7 283c0 0-3 0-9 0z m-17-263l-393 0-8 213c53 0 190 1 203 1 19 0 35 8 47 22 4 4 7 5 10 7 4 0 14 1 41 1 34 0 80-1 106-1z"/>
<glyph unicode="&#57346;" d="M32 436l0-360 448 0 0 360z m422-334l-396 0 0 308 396 0z m-275 218c0-24-19-43-42-43-24 0-43 19-43 43 0 23 19 42 43 42 23 0 42-19 42-42z m-12-95l-78-81 157 0z m252-81l-135 139-77-79 58-60z"/>
<glyph unicode="&#57347;" d="M418 437l-324 0c-33 0-62-27-62-63l0-236c0-34 27-63 62-63l324 0c33 0 62 27 62 63l0 236c0 34-27 63-62 63z m46-299c0-26-21-47-46-47l-324 0c-25 0-46 21-46 47l0 236c0 26 21 47 46 47l324 0c25 0 46-21 46-47z m-104 128l-181 104c-9 4-16 1-16-10l0-210c0-9 8-14 16-9l181 104c10 6 10 16 0 21z"/>
<glyph unicode="&#57348;" d="M32 83l448 0 0-13-448 0z m32 50c-18-24-22-35-22-35 8 1 20 9 35 22z m173 133l-32 30c-74-75-114-126-138-158l15-15c43 34 102 90 155 143z m118 120c7 6 10-4 10-4 0-3-88-97-88-97-7-7-10-27-3-31 6-3 8 12 8 18 0 6 96 104 96 104 8 10 4 18 0 21-5 3 1 6 1 6 10 19 0 29 0 29-11 13-35 0-35 0-53-50-96-91-131-130l33-30c58 61 108 110 109 114z"/>
<glyph unicode="&#57349;" d="M233 76c-99 0-180 81-180 180 0 25 15 70 15 70l165-73-6 183c0 0 4 0 6 0 47 0 90-18 122-48l28 0c-37 42-90 68-150 68-110 0-200-90-200-200 0-110 90-200 200-200 88 0 162 56 189 135l-21 0c-26-67-91-115-168-115z m78 305l168 0 0-21-168 0z m0-54l168 0 0-20-168 0z m0-54l168 0 0-20-168 0z m0-53l168 0 0-21-168 0z"/>
<glyph unicode="&#57350;" d="M139 335l0-264 340 0 0 264z m68-41c20 0 36-16 36-36 0-20-16-36-36-36-20 0-37 16-37 36 0 20 17 36 37 36z m-41-187l67 69 67-69z m151 0l-50 51 67 69 115-120z m139 282l-371 0 0-287 24 0 0 264 347 0z m-52 52l-371 0 0-287 23 0 0 264 348 0z"/>
<glyph unicode="&#57351;" d="M32 80l448 0 0-16-448 0z m0 77l101 0 0-55-101 0z m117 99l101 0 0-154-101 0z m115 194l101 0 0-348-101 0z m115-109l101 0 0-239-101 0z"/>
<glyph unicode="&#57352;" d="M480 326l0 17-107 0 12 47-52 0-44-180-46 180-67 0-50-180-37 180-57 0 63-268 60 0 53 188 54-188 57 0 14 54 147 0 0 18-143 0 8 31 135 0 0 18-131 0 8 32 123 0 0 18-119 0 8 33z"/>
<glyph unicode="&#57353;" d="M379 480l-246 0c-43 0-77-35-77-77l0-293c0-43 35-76 77-76l246 0c43 0 77 35 77 76l0 293c0 42-34 77-77 77z m61-371c0-34-27-61-61-61l-246 0c-34 0-61 27-61 61l0 294c0 34 27 61 62 61l101 0 0-30 31 0 0 30 115 0c33 0 62-27 62-62l0-293z m-176 325l30 0 0-31-30 0z m-30-31l30 0 0-30-30 0z m30-32l30 0 0-30-30 0z m-30-30l30 0 0-31-30 0z m30-31l30 0 0-30-30 0z m-30-32l30 0 0-30-30 0z m30-30l30 0 0-30-30 0z m-30-30l30 0 0-31-30 0z m0-162l62 0 0 115-61 0 0-115z m14 101l30 0 0-39-30 0z"/>
<glyph unicode="&#57354;" d="M159 256l1 1-1-1z m58 101l1-1z m2-36l0 0 1 1-1-1z m-9 39l0 0 2 1 0 0z m4 2l0-1z m-5-63l0 0 1 1z m3 30l0 0z m16-36l0-1z m-20 4l0-1z m9 16l1 1-1 3-1-1 1 2-3-3-1 0 1-1-1-1 3 1 0-1 1-1 0 0 1 0 0 1z m-8 49l-1 0z m9-45l0-1 0 2z m-8-18l0-1z m5 13l-2 0 0-1 2 0z m0-3l1 0 1 1-2-1z m-11-16l1 1-2 1z m104 18l-1 2 0-2z m0 5l-1 0 0 0 1 0z m-1-5l0-1 1-2z m2 3l0 0 0 2-1-1z m0-11l0 1 0 0z m-2 1l0 1-1 1 0-1-1 0 0-1 2-1z m-104 54l0 0 1 1 1 0-2-1z m103-40l0 0 0 0z m-3-2l0 0z m-36 47l0 0 1 0z m-48 1l0 0-1-1 1 1z m87-61l-1 1 0-1 0 0z m-103 55l0-1 1 1 0 0z m85-27l0 0z m9 20l0 0z m-1-10l-1 1 0 0 0-1z m-133-80l0 0 0 0z m18-34l1-2 1 0 1-1-1 2z m14-19l0 0 0 1z m-9 21l0 1-1 1-4 5-2 2-4 2-1-2-1 1 1-1 2 0 2 0 0-1-1 0 1 0 4-4 0-2 2-1 0-1-1 0 4-2 1 0z m10-21l0 0z m-19 23l0 0z m-1 25l-1 1 1-1z m7-23l0 1z m-7 4l-1-1 1 0 0 1z m21-15l-1 0-1 1-4 2-2 0 2-1-1 0 1-2-3 2-1 0 1-1 3-1 1-2 1 1 1 0 3-2 1 1-2 2z m13-15l0 0 0 0z m-20 17l-1 0 1-1z m-6 13l1-1 0 1-1 0 1 0z m26-25l0 0-1 0 0-1z m-1-11l-1-1 2 0 0 1-2 0z m-5 2l-1 0 1 0z m-1 14l0 0z m1 50l-3 0 2-1z m99 30l1 0z m-103-78l0-1 2-1 1 1z m-5 39l-1-1 1 1z m-27-28l0 0 0 0z m23 0l1 0z m-25 3l1 0-1 0z m27 24l0-1 0 1z m-27 5l0 0z m4-4l0 0z m-1-18l1 0-1 0z m19-3l0 0 0-2z m-1-2l1-1z m0 4l1-1 0 0-1-1 1 1z m0 2l-1 1 1-1-1-1 0 0z m-1 1l-2 0 2 0z m2-9l0 0 0 1z m2-5l1 0-1 0z m0 3l0 1-1-1 1 0z m-5 7l-1 1 0-1 0 0z m7 112l0 0z m-4-13l0 1 0-1 0 0 1 2-2-1 1 0z m-2 0l0-1-1 0 3 1z m1-1l2 1 0 1-2-2z m-2-2l0 0z m-2-1l-1 0 1 1z m2 2l0 0 1 0 0 1 0 0z m0-1l0 1 0 0z m1 1l0 0z m0 1l0 0-1-1z m112-99l1 1 0 0 0 1z m-119 94l1 0 0 0 1 1-1 0 1 0 1 1-2-2-2-2z m2-1l0 1z m-8-11l0 1z m6 9l0-1z m5 6l0-1 1 2-1-1 0 0-1 0 0-1-1-1 1 1z m-5-6l-1-1 2 2-1-1z m1 1l1 1-1 0z m15 17l0 1 0 0z m-21-155l1 0-1 1z m185 88l-1 0 0 0z m-208 1l0-1 1 1z m216-13l0 1 0 0z m-7 37l-1 1 1-2z m-186 17l0 0z m187-24l0 0 0 0z m-169 52l0 1 0-1 1 0 0 1 0 0 0 0-1 0 1 1 0 0-1-1 0 0 0 0z m1 0l1 1-1 0z m-9-16l0 0-1 0 1-1 0 1 0 0z m9 21l0 0z m-10-23l0 0-1 0z m27-121l0 0 0 0z m-17 135l1 0 0 0z m1 2l1 0-1 0z m1 1l0 0 0 0z m-22-29l0 0z m153-32l0 0 0 0z m-4 1l1 0-1 0z m0 1l1-1 0 0z m8-23l0 0z m8 20l1 0 0 0z m0 4l0-1 0 0 0 1z m-3-8l0 1 0 0z m-160 42l1 0z m158-40l-1 0z m-18-14l1 0 0 1 0 0z m2 2l0 0 0 0z m-18-33l0 0 0 1z m33 34l0 0z m-12 7l-1 2 0-2 2-2z m8-5l0-1 4 1-1 3z m-8 7l1 0z m1-4l-1-1 3-3 1 1-2 2z m18 3l0 1z m-182-74l0 0 1-1z m-8 62l0 0z m194-59l0-1 0 0z m-7 77l0-1 2 0 0 0-1 1z m-179-80l1-2 0 0 0 0 0 0 0 2z m17 116l0 0z m-20-28l0 1z m21 29c0-1-2-3-2-5l2 4c0 0 0 1 0 1z m-15-121l1 0-1 0z m182 79l-2-1 1-1 1 1 1 2 0 0z m-1 4l0-1 0 1z m-1 2l0 0 0 0z m3-2l0 0 0 1z m0-1l0 0 0 0z m5 6l-1 0 0 2-1-4 1 0z m-8-89l0 0 0 0z m-130 97l0-1 0 2-1-1 0 0 0-1z m29 32l0 0z m-12-15l0 1-1 0z m20-19l0 0 0 1z m1 0l0 0z m-5-124l0 0 0 0z m-9 157l0 1 0-1z m-7-12l0 0 0 0z m36 7l0 1z m-34-20l0 0 0 0z m25 3l1 0z m-10 11l0-1z m-1-3l0 1-1 0-1-1 1 0 0-1z m0-3l0 0z m21 5c0 0 0 0 1 0-2 0-5 4-4 5 0 0 1 0 1 0 0 0 1 1 1 1 0-1-1 1-1 1 0 0 1 0 1 0 0 0-1 0-1 1 0 0 0 0 0 0 0 0 0 0 1 1-2-1-3 7-3 8 0 0-1 0-1 0 1 1 1 1 1 2-2-1-2-1-3-1 0 0-1 0-1 0 0 1 0 0-1 0 0 1 1 1 2 2-4 1-17-6-18-5 1-2 0-2 2-2-1 0-1-1-2 0 0 0 1-1 1-1 0 0-1 0-2 1 0-1 1-1 1-1 0-1-1 0-1-1 0 0 1-1 1 0 0 1 4-3 4-3 1-2 0-4 0-6 0 1-1 0-1 0 1 0 0-1 1 0-1-2 3-4 0-7 0 0 0 0 1 0-1 0-1 0-2-1 0 0 0-1-1-2 1 0 1 0 2 0-1-1-1-2-1-4 0 0 0 0 0 1-2-3 2-9 5-8 0 0-1 0-1-1 0 0 0 1 1 1-1-1-1-1-1-1 0 0 1 0 1 0 0 0 0-1 0-1 0 0 0 0 0 1 0-1 0-1 0-1 1 0 1 0 2 0-1 0-1 0-1 1 1 0 1 0 1 1 0 1 1 1 0 3 2 1 2 1 2 2 0 0 0 0 1 0-1 0-1 1-1 1 1 1 2 3 3 4 0 0 0-1 0-1 1 0 5 3 5 4-1 0-1 1-1 1 1-1 1 0 2 0 2 0 4 2 5 4 0-1-4 0-5 0 1 1 1 1 2 2-1 0-2 0-2 1 1-1 2-1 4-2z m-21 3l-1 0 1 0z m2-23l1 1z m16 19l1 1 0 1z m-10-11l1-1z m-17 7l0 0z m-15-38l-1-1 2-2 0 0 1 1-3 1z m3-4l0 0 1 1 0 1-2-1 0-1 3 0-1 1z m9-91l0-1z m-3-2l1 1-1-1z m4 99l1 0-1 0z m-2-97l0-1 0 1z m-7 98l-1 1-2 2 3-3z m-1-3l-1-1z m3 41l1 1 0 0-1 1-1-1z m2 4l0 0-1 0z m-1 1l0 0 0 0z m-1 0l1 1-1 0z m0-1l1 1z m6-141l1 0-2 0z m2 94l1 1-1-1 0 0 0 1 0 0 1 1-1-1 1 2-2 0 1 1-2-1 1 1-2 0 1 1-1 0 1 1-2-1 3 2-1 1 1 0 0 1-3-2-1-2 0 0 0-1-1 0-1-1 1 0-2-1 0-1 2 0 2-1 1 1-1-1 3 0-3-1 2 0 1 1 1-1-1-1 1 1 0-1 0 0 1 1 0 1z m-1 0l0-1z m1 39c0 3-2 4-1 6 0 0 1 1 1 1 0 0-1 0-1 0 0 0 0 1 0 1 0 0-1 0-1 0 0 0 1 1 1 1 0 0-1 0-1 0 0 0 1 1 1 1-1 0-1 0-1 0-1 1 0 2 0 4-1-1-2-2-2-2 0 0 0 1 0 2 0 0-1-1-1-1 1 1 1 2 1 3-1 0-5-3-5-3 0 0-1 1-2 1 0-1 1-2 2-3 1-1 0 0 0 0 0 0 1-1 1-1 0 0 0 0 0 1 0 0 1-1 1-1 1 0 0 0 1 1 0-2 0-2-1-4 4-1 0-5-2-6-2 1-2 0-4 0 1-1 2-1 3-1 1-2 1-2 1-3 0-2 2-3 3-5 0 2 0 3-1 4 1-1 2-2 3-2 1 1 1 4 0 5 0 1 0 2 1 2 1-1 1-1 1-1 0-1 1 0 1 0 0 0-1-1-1-1 3 0 3 0 3 1 0 0 0 0-1 0z m5 21c0 1 0 1 0 1 0 0 0 0 0 1 0-1 1-1 1-1 0 0 0 1 0 1 0 0 7 2 7 3-1 2-3 2-5 1 0 0 0 1 0 1-1 0-3-1-2-2 0 0-1 0-1 0 1 0 2 0 2-1-2 0-4-1-5-2 0 0 0-1 0-1-1 0-3 0-4 0 1-2 2-2 3-2 0 0 1 1 1 1 1 0 2 0 3 0z m48 14l0 0 0 0-1 0 0 0-1 1 0 0-2 1-2 2-2 0 2-1 0-1 3-2 1 0 1-1 0 1 0-1 1 0 0 0 1 0 0 1-1 0z m1-49l0 1 0-1z m1 47l0 0 0 0 2-1 1 0-1 1 2 0 0 1-2 0-2 0-1 1 0-1 0-1z m-1-44l0-2 0 0 1 0z m-2-94l1 0-1 1z m-7 148l0 0z m14-61l-1 1-1-1 0 0-1 0 0-1 0 1-1-2 1 1 0-1-2-1 1-1 0-1 2 1-1-2 1 1-1-2 1 0-1-1 1 1 0-1 0 1 0-1 2 1 0 0 1 2-1 3z m-10-84l0 1 0-1z m12 26l0 0 1 1-1-1z m-5 61l0-1 1 1z m-6 58l0 0 0 0z m13-119l1 0 0 0-1 1z m-3 57l0 0 0 1z m4-5l-1-3 2 1 0 1 3 2 1 2 0 0-1 0 0 0 0 2-1 1-1-1 0 0-1 1 0 0 0 0 0 1 0 0-2 1-2 2-2-1 1 1-1 0 1 1-1 2-2-2 0 3-2-1 1-1-1 0 2-2-1-1 1 1 1-3 0 1 0 1 1 0-1-1 1-2 0 0 0 0 2 2 0-2 1 0 0 0 0-1 1 0-1-1-1-1 1 0 1 0-1-2 2 0 1 1 0-1z m-7 8l0-1 0 0z m0 0l0 0z m1 0l0 0 0-1z m-6 56l0 0 0 0-1 0z m-12-98l0 0 0 0z m0 57l0 1 0-1-1 1 0-1-2 0 1-1-1 1 0-1-1 0 0-2-1 2-2 0 1-1-1 1 1-1-1 0 0 0 0 0 2 0-1-1 1 0-2-1 3 0-1-1 1 0 3 0 1 1 1 1 1 2-1 0 1 0z m3-58l1 0-1 0z m19 55l-1 1z m-33 13l2 0-1 1 0 0 0 0-1 0 1 0-1 0z m29 0l0 0 0 0z m-6 33l-1 1 1-1z m-18 2l-1 0-1 0 0-1 3 0z m-5-34l-1 1 0-1 1 0z m26 5l0 1 0 0z m6 20l-1 0-1 0 1-1z m-4-42l-1 1z m-28 19l1 1 0 0z m27-26l-1 1 1-1z m-1 28l0-1 0 0z m2-23l0-1z m-2 23l1-1 0 1 0 0z m-63 9l0 0 1-1 1 0 1 2 0 0 0 1-1-1 0 1-1-1 0 0 0-1 0 0z m29 30l0 0 0-1z m-2-1l1 0 1 0-1 1-3 0 1-1-1 1-1-1 3 0z m2 2l1 0z m-2 0l-2 0 0 0 1 0z m2 2l0 0z m14-12l0 1-1 1-1-1 0 0 1 0-1-1z m-6-26l0 1 0-1z m6 26l0 0 0 0 0-1z m-4-30l0 1 0-1z m2 32l2 0-2 1 0-1 1 0z m-34 8l0 0 1 0z m1-35l-3 0 0 1-1 0 1 1-1 0 1 0 0 1 0-1 0 1 1 0-2 0 1 1-1 1 0-1 0-1-2-2 0 0 1-1 1 0-1 0 2-1 1 0 0-1 1 0 0 0 1 1z m1 5c0 0 0 0 0 0 0 0 1 0 1 0 0 0 0 0 0 0 0 0 1 0 1 0 0 0 0 1 0 1 0 0 1 1 1 1 0-1 0 1 0 1-1 1-3 0-2-2-1 0-1 1-1 1-1-1-1-1-1-2 0 0 1 0 1 0z m15 0l-1 1 1-1z m2 1l-1 0 0 0 1-1z m-3 28l-1 0-1-1 3 0z m4-27l0 0 0 0z m-20-3l0 0 0 0z m40 12l-1 0 2-1z m2-6l0 0 0 0z m-2 5l0 0z m3-8l0 0 1 0 0 0-2 1 0-1z m-2 1l0-1 1 0z m-63-137l1 0 0 0z m26-58l0 0z m-23 61l0 0 0 0z m58 133l1-1 0 1 1 0-1-2 1 0 0 1 0-1 1 0-1 0 2 0 1 0-3 2 0 1-2 0 0 0-1 0 2-1-2 1 0-1 0 0-1 0 0-1 3-1z m0 10l0 0 0 0z m0 1l0 0z m1-13l-2 1 1-1z m0 13l0 0-1 0 0 0z m-2-9l0-1 1 0 0 1 0-1 2 1-1 1-1 0 0 0-1 0 1-1-2 0z m2 9l0-1 1 0z m1-2l-1 0 1 0z m0 1l-1 0 1 0z m-54-38l0 1-1 0z m-4 29c1 0 3 0 4 0 0 0 1 4 1 4 0 0-1-1-1-1l-4 0 0-1-2-1 1-1c0 0 1 0 1 0z m8 3c1 0 2-1 2 0 0 1-1 1-2 1l1-1c0 0-1 0-1 0z m-3-8l1 1 0 1 0-1-1-1z m-6-6l0 0z m10 9l1 0 0 1c0-1 0 0 0 1 0 0-1-1-1-1 0 1 1 2 0 3 0-1-1-1-1 0l0-1-1 1 0-1 1 0-1-1 1-1-2 1 0-1 2 0z m0 4l-1 0 0 0z m-7-14l0 0z m8 9l-1 0 0 0z m-1-3l0 0-1 0z m4-30l0 0 0 0z m-7 5l0 0z m-6 19l0-1 1 0 1 2z m7-3l0 0 0 0z m5-23l0 0z m-7 34l0 1-3-2 2 2 0 0-1 0 0 0-1 0 0 0 1 0 0 1-1 0 2 1-2 1-2 0 0-1-1 0 1-1-1 1-1-1 1-1 0-2-2 3-1-1 0-2-1-1 1-1 2-1 0-1 1-1 1 0-1 0 1 1 0 0 1 0-1-1 1 1 1 2 3 2z m2-3l2 0-1 2-1-1 0 1 0-1-1-1 0 1-1 0-1-3 0 0 1 1 0-1 0 0 0 0 2 1z m1-2l1 0 2 1-1 1-3-2 0 0 1 0z m3 6l0 0 0 1z m2-2l0 0 0 0z m0 0l-2 0 1-2z m-1 0l0 0z m2-7l0 0 0-1 2-1 0 2-1 1z m-19-119l0 1 0-1z m16 129l0 0z m1 0l0 1 0 0z m4-3l0 0 0 0z m-4 7l1 1z m-1-12l-3-2 1-1 1-1 0 2 1 1 2 1 0 0z m4 9l0 0 0 0z m-3 25l-1-2 1 1z m4-27l0 1 0-1z m24 46c-69 0-126-56-126-126 0-70 57-126 126-126 70 0 126 56 126 126 0 70-56 126-126 126z m-58-227c-35 20-59 58-59 101 0 42 23 79 56 99l-1 0 1 0c0 0-1-1-1-1-2-1 3-4 5-4-1 0-2-1-3-1 0 0 0-1 1-2-3-1-4-6-7-8 1 0 1 0 1 0 0 0 0 0 0-1 0 0 0 1 1 1-1-1-2-2-2-2-1 0-1-1-2-1 0 0 1 0 1 0-2-1-3-2-4-3 0 0 1 0 1 0-1-1-2-1-3-1 1 0 2 0 2 0-1 0-1-1-2-1 0 0 0 0 0 0-1 0-1-1-2-2 0 0 1 0 1 0 0 0-1 0-1 0 0-1-1-2-2-2 0 0 1 0 1 0-1-1-2-1-3-1 0-1 1-1 0-1 0 0 0 0 0 0 0-1 0-1 0-1-1-1-1-1 0-1-1-1-1-3-1-2 0 0-1-1-1-1l1 0-2-1 0-1-2-2-1 1 1 0 1 0-1 0 1 1 0 2c0 0-2-2-2-3l-1 0 0-1 0 1-5-4-2-2-1-1-2-3-1-2 0-1-1-1 0 1 0-1-2-5-1-1 0-3-1-2-3-7 0-4-1-1 0-1 0 2 0-4 0 0 0-2-1-2 0-5-1-1 1 0 1 2-1 1 2 4 0 4 1 1 0 5 2 3 0-3-2-5 0-3 0 0 0-1 0-4-1 0 1-3-1-1 0-5 0-3-1-1 0-1 0 1 0-1 0-6 2-2 0-2 4-8 3-2 3-7 3-4 0 1 2-1 0-1-1 0c0 0 2-5 2-5l0-1 0-1 1-1 0 0 0 1 0-1 2-3 0-1 0 0 0 1 1-2 0 0 1-1 1-1 1 0 0-1 0-1 1 0-1 2 3 0 1-1 0-1 0 0 1-4 0-3c0 0 1-1 0-2l-1-1-1 1 0-2-1 1 0-1-2 0 1-1-1 0 0-1-1 0 0-2 1-1 1 0 0-1 0-1-2 0 0-2 0-1 2-2 2-3 3-5 3-4 0-1 1-1 1-2 7-5 2-2 1-2 1-1 0-2c0 0 1-2 1-2z m33-13l2 1 0 0 1-1-2 0c0 0 0 0-1 0z m137 147l0 2 0 0c0 0 0-1 0-2z m-10 13l2-2 0 1 1 0 0 1-1 4 1-1 0 4c1-2 2-4 2-6l0 0 0-1 0 0-1 1-1 1 2-6 0 0 0 0 0 0 0-2 1-1-1 0-1 3 0-1 1-2-1 1-1 1-1 0-1 1 0 0-1 1 0 0 0 1 0 1 0 0z m-3-19l1-2 0 0 4-2 1-1 1 0 1-1 1-2 2 0 2-2 1-3 1-3 1 2 0 2 0 5-1 2 0 5-1 2 0 3c1-4 2-9 3-14l0-1 0-3 0-2 0-1 0-2-1 0 0-1 0 2 0 0-2 1-1-1 0 1 0-1-2 3-1 0-2 4 0 0-1 1-1 0-1 1 0 0 0 1-4 3-2 1-1 1 2-1 1 0z m-8 13c3-4 7-9 5-13 0 0-1 0-1 0-1-3-1-5-4-7-1 0-1 0-2-1-5 1-2-5-2-8-2 0-3 0-4-1-3 3-5-2-8-1-1 1-2 6-3 7 0 0 0-1 0-1 0 0-1 1-1 1-2-4-6-5-9-8-3-3-4-5-8-7 0 0-1 1-1 1-1-3-3-6-3-8-1-3 0-6 0-8-1-3-4-5-5-7-1-2-1-5-2-7-1-2-2-4-2-7 0 1 0 1 0 1 3-3 4-9 1-13 0 0 2-1 2-2 1 1 1 1 2 1-1 0-1-1-2-1 0 0 0-1 0-1 0 0 1 0 1 0 0 0-1 0-1-1 0 0 1 1 1 1 0-1 0-1 0-1 1 0 0 0 1 0 0 0 1 0 1 1 0 0-1-1-1-1 0 0 1 0 1 0 0 0 0-1-1-1 1 0 1 0 2 0 1-1 1-1 2-2 0 0 0 0 0 0 1-1 2-1 2-1 0-1-1-1-1-1 1-1 1 0 2-1 2 0 5-2 7-2 3 0 5 2 7 4 5 2 9 6 13 9 0 0 0 0 0 0 1 0 2 0 3 0 0 0 0 0 0 0 0 0 0 0 0 0 0 0 0 0 0 0 0-1 0 0 0 0 0 0 0-1 0-1 0 0 1 0 1-1 0 1 1 2 1 2 0 0 2 1 2 2 1 0 0-1 1 0 0 0 0-1 1-1 0 0 0 1 0 1 1-2 1-4 0-5 1-1 0-1 0-2 0 0 1 1 1 1-1-1-1-2-2-3 1-2 4-3 5-4 3-4-4-14-5-18l0-2c-21-24-53-40-88-40-8 0-16 1-24 3 2 0 6 1 5 3 0 1 0 1 0 1 0 0 0 0 0 0 4 1 10 1 14 3 3 3 4 5 5 10 2 0 6 3 7 5 2 4 1 4-2 6-4 2-14 6-18 3 1 0 0 0 1 1 0 0-1 0-1 0 0 0 0 0 1 1 0 0-1 0-1 1 0 0 0-1-1-1 0 1-1 1-2 1-1 1-3 1-4 1 0 0 0-1-1-1 0 0 1 0 1 0-1 0-1-1-3-1 0 0 1 1 1 1-1 0-2 0-3 0 3-1 4 0 5 2-1 0-3 1-4 1-1-1-1-1-1-2 0 1 0 1-1 1 0 0 0 0 0 0 0 0 0 0 0 0-1 0-1 0-1 0 1 1 2 2 3 3 0 0 0 0 0 1-2 0-2 2-3 4 0 0 0 0 0 0-4 5-11 3-14 7 0 0 0-1 0-1 1 3-2 5-4 5 0 3-2 3-4 5 1 0 1 0 2 0-1 0-3 1-5 1 1 0 1-1 2-1-5-1-10 4-12 7 0 0 0-1 0-1 0 0 0 0 0 0-1 0-2 0-3 0 0-1 0-3 1-3 0 0-2 0-1 0-1 1-1 3 0 4 0 1 1 0 1 1 0 0-1 1-1 1-3-2-7 1-7-3-1 0-2 0-3 0 0-1 1-1 1-2-2 5-5 4-8 7-4 4-1 6-1 11 0 4-5 5-7 8 1 1 2 3 2 4 0 0 0-1 0-1 1 2 1 3 3 5-1 1-3 2-5 2 0-2-1-2-3-3-5 3-8 13-2 18 0 0 0 0 0 0 3 4 1 4 6 5 1 0 0 0 0 0 3 0 4-4 5-4 1-1 1-2 1-2 0 1 0 2 0 3 1 0 3-1 3-1 3-2 6-7 5-10-1-2 0-5 1-7 4 4 0 12 5 14 1 2 5 2 7 2 0 0 0 0 0 1 0 0 0 0 0 0 1 0 1 0 1 0 1 1 0 1 0 2 0 0 1-1 1-1 0 0 0 1 0 1 0 0 0-1 0-2 0 2 0 2-1 4 0 0 1-1 1-1 0 1 0 1 0 1-1 0 0 0 0 0 1 0 0 2 0 1 0 0 0 0 0-1 0 1 0 2 0 3 0-1 1-1 1-2 0 1 0 2 0 3 0 0 2 0 2 0-1-2-2-3-2-5 1 1 2 3 2 5 0-1 0-1 0-2 3 3 4 3 7 4 1-1 1-1 2-1 0 0 0 0 0 0-1 3 2 4 4 5 0 0 0 0 0-1 1 1 1 0 2 1 2 0 3 0 5 1 0-1-2-1-1-2-2 0-3 0-3-3 3 1 5 2 7 2-2 1-5 4-3 7-1 0-1 0-2 1 1-1 3 0 3 1-2 2-7 0-10-2 3 2 6 5 9 5 3 0 5-2 7-2 2 0 5 2 7 3 0 0 0 0 0 0 0 0 0 0 0 0 0 0 0 1-1 1 0 0 1 0 1 0 0 0 0 1 0 2 0 0-1 0-1 0 0 0 0 0 0 1-1 0-3 0-4-1 1 0 2 1 3 1 0 0-1 0-1 0 0 0 1 0 1 1 0 1 0 1 0 1 0 0-2 0-2 0 0 0 1 1 1 1 0 0 0 0 0 0-1-1-2 3-2 3 0 0 1 1 1 1 0 0-1 6-1 7 0-1-2-2-3-2l-2-1c0 0 1 1 1 1 0 0-1-1-1-1-1 1-1 2-1 2 0 0 1 1 1 0 0 1 0 1 0 2 0 0-1 0-1 0 0 0 1 0 1 0 1 0 1 1 1 2-1 0 0 1-1 1 0 1-1 1-1 3 0 0-2 1-3 1 0 0-1 0-1 0 0-1-1-2-1-3 0-1-1-2-3-3 2-4-2-7-6-7 1-2-1-5-2-6 0 0 0 1 0 1-1 0-1-1-1-1 0 0-1 1-1 1 0 3 0 5 3 8-5 1-2 8-6 8 1 1 1 2 2 3 0 1 0 1 0 1-1 0-1-1-1 0 1 3 5 4 8 5 0 0 0 0 1 0 0 1 0 1 0 1 0 0 0 2 0 2 0-1 0-2 0-3 1 0 1 1 2 1 2-1 1-1 3 0 0 1 0 2-1 3 0-1 1-2 1-2 1 1 2 0 2 1 1 0 1-1 1-2 0 1 0 2 1 2 0-1 0 0 0-1 2 0 3 0 3 3 0 0 1-1 1-1 0 1 0 1 1 1 0 1-1 1-1 1 1 0 1 0 1 0-1 1-1 1-1 2-1-1-1-2-2-2 0-1-2-1-3-2 1 1 1 3 2 4-1 0-2-1-2-1 1 1 1 1 2 2 0 0-1 1-1 1 0 0 1 0 1 0 1 1 2 3 2 4-1-1-2-1-3-1 0-1 0-1-1-2 0 0 0-1 0-1 0 0-1 0-1-1 0 0 0 0 0 0-1 0-2-1-3-1 0 0 0 0 0 0 0 1 1 1 1 1 0 0 0 0 0 0 0-1-1 2-1 2 0-1 0-2-1-2 0 0 1 1 1 1-2 0-3 3-1 5-1 0-2 0-2 0-1 0 1-1 1-1-2 0-2 0-4-1 0 0 0-1 0-1 1 1 1 2 2 3-1 1-1 2-2 3 1 0 1 0 2 0 0 1 0 3 1 5 0 0-1 0-1 0 0 1 1 1 2 1-1 0-2 0-2 0 1 0 1 1 2 2-1 0-1 0-2 0 0 0 1 0 1 0 0 1-1 1-1 2 0 0 1 0-1 1 1 1 3 2 3 4l2 3c0 0 1 1 1 1 1 1 3 1 2 3 0 4-5 1-6 0 0 0 0 0 1 1 0 0 0 1-1 1-1 0-3-1-4-1-1 1 0 1-1 1-1 2-8-3-9-4 0 0 0 0 1 0-2-1-3-1-4 0 5 8 18 11 26 14-1-1-2-2-3-3 1 1 2 1 3 0-1 0 0-1 0-1-1 0-4-2-5-3 2 3 14 5 16 4 0 0-1 1-1 1 5 1 11 3 16 1 0 0 0 0 0 0 1 0 1 0 3 1-1-1-1-1-1-1 0 0 1 0 1 0 0 0-1 0-1 0 1 0 3 0 4 0 1 0 0 1 0 1 2 0 6 1 7-1 0 0 0 0 0 0 3-2 7-2 10-4-1 0 2 0 3 0-2 0-4-1-6-1 0-1 1-2 2-1-1-1 6-3 7-3 4-1 7-1 11-1-1-1-1-1-1-2 0 0 1 0 1-1 0 0-1-1-1-1 2 0 4 0 6 0 0 1 0 1 0 1 0 1 1 1 2 1-1 0-1-1-1-1 2 0 4-1 5-3-4 2-7 2-11 2 3-1 5-2 8-3 0-1 0-2-1-3 2 0 3-1 4-3 0-1-1-1-1-1 1-1 2-3 3-4-1 0-2-1-3-1 5 0 4-3 7-5 0 0 0-1-1-1 1 0 1-1 2-1 0 0-6 0-7 0 1 1 2 2 3 3-1 1-3 2-5 2-13-3-2-13-2-20 0 1 0 1 1 1-1-1-1-2-2-3 2 0 0-1 0-1 1 0 1 0 2 0-1-1-1-1-2-1 1-1 1 0 2 0-1 0-1-1-1-1 0 0 1-1 1-1 0 1 0 1 1 2-1-1 1-1-1-2 0 0 1-1 1-2 1 1 1 1 1 2 0-1 0-2 0-3 1 1 1 1 1 1 0-1 0-1 0-1 3-2 4 1 2 4 1-1 2-2 3-3 0 1 0 1 0 1 2-1 4-3 5-4 3 7-6 9-8 14 1 2-1 4-3 6 0 0 1 1 1 1 4-1 4-8 9-8 0 2 1 4 3 4-1-4-1-4 2-8 0 0-1 0-1 0 0-1 2-4 2-4 2-2-1-4-2-7-2-1-3-1-5 0-1 0-2 2-3 3 0-1 3-8 5-6-1-1-2-2-3-3 0-1 0-1 1-2-1 1-1 1-1 1 0-1 0-2 1-2 0 0-1-1-1-1 0 0 0 0 1 0-2-3-1-6-4-7 0 0 0-1 1-1-2-1-2-2-3-2 0-1 0 0 0-1 2 0 11-6 8-7-3-1-5-3-8-3-1-1-1-2-2-2 3-2 3-6 3-9 0 0 1 1 1 1 0-1-1-1 0-1 0-1 0 0 0 0 0-1 1-2 1-3 1 1 2 1 3 2 0-1 2-1 2-2 1 2 4 2 5 4 1 1 1 3 1 5-2 2-1 6 1 8-2 2-1 4 2 4 0 2 1 3 1 5 2 0 5-2 7-2 3-1 7 0 7-4 0 0 0 2 0 3-1 1-1 1-2 2 1 0 1 0 2 0-1 1-3 1-4 2-2-1-6 1-8 3 1 0 1 1 1 2 1-1 1-2 2-2 0 0-1 1 0 1 1-1 3-2 5-1 0 0-1 0-1 0 5 2 5-4 8-4 0 0 1-1 1-1 1 1 2 1 2 2-2-2-1-3 2-3-1 1-1 2-1 2 0 0-1 1-1 1 1 0 1 0 1 0-2 0-3 2-4 3 0 0 1 1 2 1-1 1-1 2 0 3 1 0 1-1 1-1 0 6-7 9-6 15 1 0 0 0 2 1 1-2 1-1 2-2 0 1 0 2 0 3-1 0-1 0-1 0-1 1-2 3-1 5 2-7 10-1 8-10-1-4-7-12-2-14 0 0 0 0 0 0 3-2 10 3 7 7z m-315-44l57-25 0 16-40 16 40 15 0 16-57-24z m393 38l0-16 40-15-40-16 0-16 57 25 0 14z"/>
<glyph unicode="&#57355;" d="M434 448c0 18-15 30-31 30l-293 0c-17 0-30-14-30-30l0-384c0-18 14-30 30-30l292 0c17 0 30 14 30 30l0 192-26 0 0-200-302 0 0 400 304 0 0-74 26 0z m-103-226c7 0 11 5 11 12l0 68 68 0c6 0 11 5 11 12 0 6-5 11-11 11l-68 0 0 70c0 7-4 11-11 11-6 0-11-4-11-11l0-69-67 0c-7 0-11-4-11-11 0-6 4-11 11-11l67 0 0-69c0-6 5-13 11-13z"/>
<glyph unicode="&#57356;" d="M223 127c-5-3-9-5-14-7l0 33c-5 13-7 26-7 40 0 14 2 27 7 39l0 5c0-1 1-1 1-1 6 15 16 29 27 39-7 2-17 5-28 7l0 114c7-3 13-7 18-12 9-8 14-21 17-37l17 0c0 0 0 0 0 0l50 0c-4 26-18 53-39 68-16 12-36 19-63 21l0 44-38 0 0-44c-31-2-62-10-78-22-24-18-36-42-36-72 0-16 4-31 12-44 9-13 20-23 35-31 20-9 48-16 67-19l0-129c-14 4-29 11-39 22-9 10-15 26-19 49l-17-1c0 0 0 0 0 1l-48-1c2-22 9-47 20-62 11-15 23-25 38-32 15-7 42-11 65-14l0-49 38 0 0 50c19 0 36 5 51 12-14 8-27 19-37 33z m-52 165c-16 5-30 11-37 18-9 10-13 22-13 36 0 14 5 26 15 37 8 7 21 12 35 16l0-107z m293-39l-46 49-106-112-48 52-46-49 48-52 0 0 46-48 0 0 0 0 46 48 0 0z"/>
<glyph unicode="&#57357;" d="M211 178l24-24-59-36z m199 198l24 24 24-24-24-24z m-194-194l189 189 24-24-189-189z m170 74l0-202-306 0 0 402 306 0 0-74 25 0 0 68c0 16-14 30-32 30l-293 0c-17 0-32-14-32-30l0-388c0-17 15-30 31-30l293 0c17 0 30 14 30 30l0 194z"/>
<glyph unicode="&#57358;" d="M479 230l-221 227-3-3-1 1-225-223 44 1 18 17 0-195 122 0 0 133 82 0 0-133 123 0 0 193 18-17z m-92-144l-62 0 0 133-142 0 0-133-62 0 0 193 136 127 130-127 0-193z"/>
<glyph unicode="&#57359;" d="M256 482c-125 0-226-101-226-226 0-125 101-226 226-226 125 0 226 101 226 226 0 125-101 226-226 226z m0-425c-109 0-198 90-198 199 0 109 89 198 198 198 109 0 198-89 198-198 0-109-89-199-198-199z m68 198c-7 6-15 10-25 14-5 2-15 4-32 8l0 78c11-2 18-6 24-12 6-5 10-13 12-24l35 0c-3 17-13 35-27 45-11 7-25 12-43 13l0 29-15 0 0-29c-21-1-43-6-54-14-16-12-25-28-25-47 0-11 3-21 9-29 5-9 13-15 24-20 13-7 33-11 46-13l0-86c-13 1-29 6-38 16-7 7-11 17-14 32l-33 0c1-15 6-31 14-41 7-9 16-16 26-21 10-4 29-7 45-9l0-32 15 0 0 32c22 1 40 8 54 21 14 12 22 28 22 46 0 9-2 17-6 24-3 8-8 14-14 19z m-71 25c-15 4-31 9-37 15-6 6-9 14-9 23 0 9 3 17 10 24 8 7 23 11 36 13l0-75z m45-98c-9-8-18-12-31-14l0 83c18-5 28-11 34-16 6-6 9-14 9-24 0-12-4-21-12-29z"/>
<glyph unicode="&#57360;" d="M256 114l-221 284 442 0z"/>
<glyph unicode="&#57361;" d="M114 256l284 221 0-442z"/>
<glyph unicode="&#57362;" d="M398 256l-284-221 0 442z"/>
<glyph unicode="&#57363;" d="M256 398l221-284-442 0z"/>
<glyph unicode="&#57364;" d="M358 32l0 122 122 0 0-122z m0 285l122 0 0-122-122 0z m0 163l122 0 0-122-122 0z m-163-326l122 0 0-122-122 0z m0 163l122 0 0-122-122 0z m0 163l122 0 0-122-122 0z m-163-326l122 0 0-122-122 0z m0 163l122 0 0-122-122 0z m0 163l122 0 0-122-122 0z"/>
<glyph unicode="&#57365;" d="M256 478c-123 0-222-99-222-222 0-123 99-223 222-223 123 0 222 100 222 223 0 123-99 222-222 222z m0-414c-100 0-192 91-192 192 0 100 92 192 192 192 100 0 192-92 192-192 0-101-92-192-192-192z m20 333l-40 0 0-202 40 0z m0-232l-40 0 0-41 40 0z"/>
<glyph unicode="&#57366;" d="M471 33l-438 0 0 438c0 5 3 8 8 8 4 0 7-3 7-8l0-423 423 0c5 0 8-3 8-7 0-5-3-8-8-8z m-92 405l71 0 0-374-71 0z m-101-76l71 0 0-298-71 0z m-102-74l70 0 0-224-70 0z m-101-75l71 0 0-149-71 0z"/>
<glyph unicode="&#57367;" d="M450 172c-13 10-23 15-36 23-13 9-19 179-55 232-37 53-103 53-103 53 0 0-66 0-103-53-36-53-42-223-55-232-13-8-23-13-36-23-13-10-13-40-13-40 0 0 92-32 207-32 115 0 207 32 207 32 0 0 0 30-13 40z m-194-89c-12 0-23 0-35 1-1-4-1-7-1-11 0-20 16-36 36-36 20 0 36 16 36 36 0 4 0 7-1 11-12-1-23-1-35-1z"/>
<glyph unicode="&#57368;" d="M410 454l-128 0c0 1-2 26-26 26-24 0-138 0-138 0 0 0 22-9 26-18 0 0 0-3 1-8l-74 0 0-422 370 0 0 422z m0-391l-308 0 0 360 43 0c1-73-1-221-1-221l69 69 69-69 0 221 128 0z"/>
<glyph unicode="&#57369;" d="M32 472l0-432 448 0 0 432z m432-417l-416 0 0 327 416 0z m-382 185l50 0 0-50-50 0z m0-100l50 0 0-50-50 0z m99 199l50 0 0-50-50 0z m0-99l50 0 0-50-50 0z m0-100l50 0 0-50-50 0z m100 199l50 0 0-50-50 0z m8-107l34 0 0-34-34 0z m50 16l-66 0 0-66 66 0z m-16-50l-34 0 0 34 34 0z m-42-58l50 0 0-50-50 0z m99 199l50 0 0-50-50 0z m0-99l50 0 0-50-50 0z"/>
<glyph unicode="&#57370;" d="M479 445l-34 35-189-189-189 189-35-35 189-189-189-189 35-34 189 189 189-189 34 34-189 189z"/>
<glyph unicode="&#57371;" d="M481 283c0 83-101 150-225 150-124 0-225-67-225-150 0-83 101-150 225-150 26 0 51 3 75 9l101-63-10 103c36 27 59 62 59 101z"/>
<glyph unicode="&#57372;" d="M477 352l-82 82-192-191-86 88-83-83 88-88 81-82 2 0 81 82z"/>
<glyph unicode="&#57373;" d="M476 176c0 30-24 54-54 54 0 0-1 0-2 0 13 14 20 33 20 54 0 48-38 86-86 86-22 0-43-9-58-23-1 1-1 2-2 3-6 12-17 24-37 32-12 5-25 8-39 8-50 0-91-41-91-91 0-9 1-17 3-25-2 0-4 1-6 1-49 0-88-40-88-89 0-26 13-48 31-64l117 0c0 0 0 0 0 0l259 0c0 0 10 5 19 17 9 9 14 22 14 37z"/>
<glyph unicode="&#57374;" d="M256 384l-224-256 448 0-224 256"/>
<glyph unicode="&#57375;" d="M397 256l-223-222-51 54 171 171-179 167 55 54z"/>
<glyph unicode="&#57376;" d="M256 128l224 256-448 0 224-256"/>
<glyph unicode="&#57377;" d="M32 403l0-294 448 0 0 294z m405-25l-178-136-177 136z m-381-5l131-101-77-90 92 79 56-42 56 42 91-79-77 90 128 98 0-237-400 0z"/>
<glyph unicode="&#57378;" d="M475 77l-129 113c25 31 40 71 40 112 0 98-79 176-175 176-96 0-174-78-174-177 0-99 78-176 174-176 42 0 79 14 107 38l112-133z m-264 81c-78 0-141 64-141 144 0 80 64 144 141 144 79 0 141-64 141-144 0-80-62-144-141-144z m-91 125l22 8 34-43 91 128 23-8-116-152z"/>
<glyph unicode="&#57379;" d="M171 59l14-5c14 10 25-8 31-8 6 0 185 0 185 0 0 0 27 10 35 24 8 15-12 28-12 28 0 0 31 10 36 28 5 18-20 30-21 32 48 12 22 56 22 56 0 0-6 12-14 15 25 0 49 38 16 79-30 1-119 0-119 0 0 0 15 43 11 65-3 21-11 73-46 90-34 17-39-11-39-18 0-8-2-75-2-75 0 0-48-93-87-95-4 0-9 1-9 1z m-16-13c0 0-68 0-82 0-18 0-19 19-19 19 0 0-22 201-21 211 0 11 14 13 14 13l109 0z"/>
<glyph unicode="&#57380;" d="M98 322c-37 0-66-29-66-66 0-37 29-66 66-66 36 0 65 29 65 66 0 37-29 66-65 66z m0-104c-21 0-39 17-39 38 0 21 18 38 39 38 20 0 38-17 38-38 0-21-18-38-38-38z m156 104c-36 0-65-29-65-66 0-37 29-66 65-66 37 0 66 29 66 66 0 37-29 66-66 66z m0-104c-20 0-38 17-38 38 0 21 18 38 38 38 21 0 39-17 39-38 0-21-18-38-39-38z m160 104c-36 0-65-29-65-66 0-37 29-66 65-66 37 0 66 29 66 66 0 37-29 66-66 66z m0-104c-20 0-38 17-38 38 0 21 18 38 38 38 21 0 39-17 39-38 0-21-18-38-39-38z"/>
<glyph unicode="&#57381;" d="M334 432c4-14 5-16 4-32 0-6-4-34-4-43 2-7 4-8 5-13 5-10 3-24 2-34-2-6-3-12-7-17-3-5-11-5-14-11-5-8-2-21-5-29-3-10-11-11-13-24 5 0 8-2 13-2 5-8 11-25 19-32 7-1 13-3 20-5 22-9 48-20 70-30 21-8 45-11 53-34 0-14 1-65 1-84l-446 0c0 19 2 70 2 84 8 21 32 24 52 34 23 10 48 21 71 30 6 2 13 4 19 5 8 5 14 23 19 32l10 2c-2 11-10 13-13 21-2 12-2 24-3 36 0 0-8 2-10 2-11 8-13 38-13 50 0 6 8 11 5 20-14 63 5 92 34 101 21 8 59 24 94 2l10-8 14-3c8-4 11-18 11-18z"/>
<glyph unicode="&#57382;" d="M74 461l364 0c23 0 42-19 42-42l0-232c0-22-19-41-42-41l-132 0-106-96 0 96-126 0c-23 0-42 19-42 41l0 232c0 24 19 42 42 42z"/>
<glyph unicode="&#57383;" d="M234 413l-45 0 0-23 45 0z m110-23l45 0 0 23-23 0 0 22-22 0 0 23-22 0 0-68z m-43-267l-112 0 0-22 112 0z m110 200l0 67-22 0 0-67-23 0 0-22-200 0 0 22-22 0 0 135 179 0 0 22-201 0 0-157-90 0 0-201 90 0 0-90 291 0 0 90 67 0 0 201z m-22-200l0-67-245 0 0 112 246 0 0-45z m67 155l-22 0 0 23 22 0z m-155 68l-112 0 0-23 112 0z"/>
<glyph unicode="&#57384;" d="M480 315l-171 2-55 158-54-158-168-2 128-105-48-173 144 102 144-102-51 171z m-123-219l-101 72-102-74 35 124-91 73 121 2 37 107 37-109 121-1-92-76z"/>
<glyph unicode="&#57385;" d="M256 475l54-158 172-2-132-107 52-171-144 102-144-102 48 173-128 105 171 2z"/>
<glyph unicode="&#57386;" d="M438 146l-133 0-106-96 0 96-125 0c-23 0-42 19-42 42l0 232c0 23 19 42 42 42l364 0c23 0 42-19 42-42l0-232c0-23-19-42-42-42z m-181 264c-12 0-22-10-22-21 0-12 10-22 22-22 11 0 21 10 21 22 0 11-10 21-21 21z m9-66c-28 13-48-16-42-25 2-2 7 1 10 2 4 2 7 3 6-5-1-13-32-67-9-93 13-14 36-7 45 1 4 3 6 7 6 12 0 4-6 4-8 4-20-3-13-1-12 4 3 12 13 46 16 54 6 14 8 37-12 46z"/>
<glyph unicode="&#57387;" d="M114 480c-46 0-82-36-82-82l0-284c0-45 36-82 82-82l154 0 0 176-47 0 0 63 47 0 0 53c0 43 27 81 90 81 25 0 44-2 44-2l-1-59c0 0-19 0-40 0-23 0-27-10-27-28l0-46 69 0-3-63-66 0 0-175 64 0c45 0 81 37 81 82l0 284c1 46-36 82-81 82z"/>
<glyph unicode="&#57388;" d="M74 480c-23 0-42-11-42-42l0-35c2 2 3 3 5 5 37 30 78 35 112 37l137 0-36-29-40 0c16-14 40-38 40-83 0-48-26-72-53-93-8-8-18-18-18-32 0-14 10-22 18-29l24-17c29-24 65-53 65-98 0-13-1-22-4-32l158 0c22 0 42 13 42 35l0 261-84 0 0-83-35 0 0 83-83 0 0 34 83 0 0 83 35 0 0-83 84 0 0 76c0 29-20 42-42 42z m406-118l0-36z m-365 60c-17 0-35-8-45-20-11-15-12-32-12-50 0-43 22-109 78-109 16 0 34 5 43 16 13 15 18 32 18 42 0 46-27 120-82 120z m-83-177l0-115c29 24 80 19 106 20-10 12-20 24-20 45 0 11 4 18 7 26-7 0-15-2-21-2-30-1-54 10-72 26z m112-114c-6 0-42-1-69-11-8-3-30-11-43-29l0-24c0-22 19-35 42-35l169 0c2 3 3 5 3 11 0 34-35 51-84 87-5 8-15 8-15 8l-3 0z"/>
<glyph unicode="&#57389;" d="M120 480c-48 0-88-40-88-88l0-272c0-48 40-88 88-88l272 0c48 0 88 40 88 88l0 272c0 48-40 88-88 88z m22-74c23 0 37-16 39-35 0-19-15-35-39-35l-1 0c-23 0-37 16-37 35 0 19 14 35 38 35z m199-94c45 0 78-29 78-91l0-117-67 0 0 109c0 27-10 46-34 46-19 0-30-13-35-24-1-5-1-11-1-16l0-113-68 0c0 0 2 184 0 203l68 0 0-29c9 14 25 34 60 34z m-234-5l67 0 0-203-67 0z"/>
<glyph unicode="&#57390;" d="M481 395c-13-19-28-34-46-47 0-4 0-8 0-12 0-25-3-50-11-74-7-25-18-49-33-71-14-23-32-43-52-60-21-18-45-32-74-42-29-10-59-15-92-15-51 0-98 13-141 41 8-1 15-1 22-1 43 0 81 13 114 39-20 0-37 6-53 18-16 12-27 27-33 46 6-1 12-2 18-2 8 0 16 1 24 4-21 4-39 14-53 31-14 17-21 37-21 59l0 1c13-7 27-11 42-12-13 9-23 20-30 33-7 14-11 28-11 44 0 17 4 32 13 46 22-28 50-51 83-68 33-17 68-26 106-28-2 7-2 14-2 21 0 26 9 47 27 65 18 18 39 27 65 27 26 0 49-10 67-29 21 4 40 12 58 23-7-23-20-40-40-52 18 3 36 8 53 15z"/>
<glyph unicode="&#57391;" d="M258 480c-88 0-172-51-210-134l107 0 0-12c-33 4-30-12-25-32l70-176 51 120-24 56c-8 15-8 32-43 31l0 11 157 0 0-13c-18-1-40 5-29-33l64-167 35 98c11 40 0 80-13 118-8 26-3 47 29 56-51 55-112 77-169 77z m211-154l-101-264c27 24 56 34 91 101 24 55 23 107 10 163z m-431-4c-9-77-9-101 15-164 32-60 56-73 91-97z m223-98l-75-181c52-14 99-13 142 3z"/>
<glyph unicode="&#57392;" d="M270 120c12 0 21 3 29 8-17 2-33 13-33 35l0 42-48 0c-31 0-55 22-55 49l0 72c0 8 2 16 7 23-7-3-13-7-18-11l-102-103c-20-19-20-53 0-72l102-102c19-19 72-21 72 17l0 44 46 0z m194 227l-102 103c-20 19-68 27-72-15 0 0 0-22 0-33 0-7 0-13 0-18l-42 0c-26 0-48-19-48-43l0-63c0-24 21-43 48-43l42 0 0-43c0-38 52-37 72-18l102 103c19 17 19 49 0 70z m-110-219l20-10c0 0-33-41-51-44-27-5-54 1-77 25 29-56 84-54 109-45 15 5 55 45 55 45l24-11-13 66z m-191 232l-21 10c0 0 34 41 52 44 27 5 54-1 76-25-28 56-83 54-108 45-15-5-55-45-55-45l-24 11 13-66z"/>
<glyph unicode="&#57393;" d="M481 197c0-43-34-86-74-90l-307 0c-40 8-69 43-69 87 0 45 31 81 71 88 0 2 0 4 0 6 0 64 50 117 111 117 40 0 75-23 95-57 9 5 20 8 32 8 36 0 65-30 65-68 0-3 0-6-1-8 43-2 77-38 77-83z"/>
<glyph unicode="&#57394;" d="M415 281c0 2 1 4 1 7 0 32-25 58-56 58-8 0-16-2-24-5 22-9 37-31 37-57 0-2 0-5 0-7 37-1 67-34 67-73 0-28-17-56-40-70l18 0c34 3 62 39 62 76 0 39-29 70-65 71z m-128 56c9 5 18 8 29 8 5 0 10-1 14-2-17 27-46 45-78 45-9 0-17-2-24-4 25-7 46-24 59-47z m63-65c0 2 0 4 0 6 0 33-25 59-55 59-10 0-20-3-28-8-16 30-46 49-81 49-52 0-94-44-94-100 0-1 0-3 0-5-34-5-61-37-61-75 0-37 25-67 59-74l262 0c34 4 63 40 63 77 0 38-29 69-65 71z"/>
<glyph unicode="&#57395;" d="M382 205c5 46-46 51-46 51-14 42-53 21-53 21-19 41-56 13-56 13-3 1-8 68-11 112 11 8 19 20 19 35 0 24-19 43-43 43-24 0-43-19-43-43 0-16 9-31 22-37 0-101-3-131-3-131-8-18-21-61-21-61-29-32-16-54-16-54 24-42 71-95 71-95 20-17 8-27 8-27l140 0 8 26c34 60 24 147 24 147z m-224 232c0 17 15 32 32 32 18 0 32-15 32-32 0-8-3-16-9-23-2 13-3 21-3 21-5 23-34 35-40-11 0-5 8-13 8-13-15 8-20 16-20 26z m116-21l89 0 0-22 56 41-56 42 0-23-89 0z"/>
<glyph unicode="&#57396;" d="M113 94c0 0-14 25-12 49 1 23 4 20 17 31 12 11 92 26 93 38 1 6 3 16 0 19-4 5-6 12-9 20-3 8-1 5-9 15-7 8-13 19-15 37-1 17 5 15 8 25 3 9-3 15 3 28 13 31 26 38 35 45 11 8 44 7 56 1 7-3 36-26 37-44 0-5 3-21 3-21 0 0 3-7 4-14 0-2 1-7 1-10 1-21-3-27-7-37-4-11-15-14-17-28-2-12-7-14-9-17-2-4-4-19 6-22 10-3 78-29 90-37 12-7 18-16 17-28-3-33-15-50-15-50l-277 0z m72 143c1 3 3 4 5 8-3 7-2 6-11 17-8 10-16 22-18 44-2 21 6 19 9 30 4 11-3 18 4 34 1 2 1 3 2 4 0 0 0 1-1 1-9 5-36 5-45-2-7-5-17-11-28-35-4-11 0-15-2-23-3-7-7-6-6-20 1-14 6-23 11-29 7-8 6-6 8-12 3-6 4-12 7-16 3-2 1-10 0-15-1-9-65-22-75-31-9-8-12-6-13-25-1-19 10-39 10-39l37 0c-1 4-1 8-1 12 2 26 6 23 19 36 13 11 93 27 106 40-7 2-12 4-14 5-7 2-6 13-4 16z m279-46c-10 6-64 27-73 29-7 2-6 14-4 17 2 3 5 5 7 15 1 10 10 13 14 22 3 8 6 13 5 29 0 3 0 6-1 9 0 5-3 10-3 10 0 0-2 14-2 17-1 15-24 33-29 35-10 6-37 6-46-1 0 0 0 0 0-1 0 0 0 0 0 0 0-5 3-26 3-26 0 0 4-7 5-16 1-3 1-8 1-13 2-24-3-31-8-44-4-9-12-14-17-22 2-5 4-10 7-14 2-2 1-10 0-15-1-3-6-6-14-8 21-8 87-33 99-41 14-9 21-19 20-32-1-5-1-10-2-14l40 0c0 0 10 14 12 41 0 10-5 17-14 23z"/>
<glyph unicode="&#57397;" d="M334 482l-156 0c-29 0-53-24-53-53l0-346c0-29 24-53 53-53l156 0c29 0 53 24 53 53l0 346c0 29-24 53-53 53z m-70-432l-18 0 0 35 18 0z m88 52l-192 0 0 311 192 0z"/>
<glyph unicode="&#57398;" d="M56 32c0 0-19 35-18 69 2 33 7 29 24 45 18 16 132 38 135 54 1 10 5 24 0 29-7 6-8 16-13 29-5 11-2 8-14 22-10 11-20 27-21 51-2 23 6 21 11 34 5 13-5 21 5 40 19 43 37 54 49 64 16 13 64 11 80 1 10-4 52-36 53-62 0-6 3-30 3-30 0 0 5-10 7-20 0-3 1-9 1-16 2-28-3-38-9-52-7-16-23-21-26-40-3-18-9-21-13-26-3-6-4-27 8-30 15-5 112-42 130-53 18-11 26-24 24-40-3-45-21-69-21-69z"/>
<glyph unicode="&#57399;" d="M256 395c-160 0-224-123-224-123 0 0 64-123 224-123 160 0 224 123 224 123 0 0-64 123-224 123z m0-233c-131 0-194 88-206 110 12 22 75 110 206 110 130 0 194-88 206-110-12-22-75-110-206-110z"/>
<glyph unicode="&#57400;" d="M331 347c7-8 11-19 11-30 0-27-22-50-49-50-27 0-50 23-50 50 0 27 23 49 50 49 6 0 13-1 19-3-18 10-35 16-56 16-59 0-107-48-107-107 0-59 48-107 107-107 59 0 107 48 107 107 0 30-13 56-32 75z m-75 48c-160 0-224-123-224-123 0 0 64-123 224-123 160 0 224 123 224 123 0 0-64 123-224 123z m0-233c-131 0-194 88-206 110 12 22 75 110 206 110 130 0 194-88 206-110-12-22-75-110-206-110z"/>
<glyph unicode="&#57401;" d="M403 322l-130 126-33 32-163 0 0-448 358 0 0 259z m0-258l-294 0 0 384 131 0 0-157 163 0z"/>
<glyph unicode="&#57402;" d="M403 322l-130 126-33 32-163 0 0-448 358 0 0 259z m0-258l-294 0 0 384 131 0 0-157 163 0z m-272 264l90 0 0-16-90 0z m0-96l253 0 0-16-253 0z m0-96l253 0 0-16-253 0z"/>
<glyph unicode="&#57403;" d="M478 430c-3 4-25 26-25 26 0 0-23 22-26 26-3 3-8-2-8-2l-41-50c0 0-8 8-13 5-5-5 1-14 1-14l-313-317c0 0-24-69-23-70 2-2 58 17 58 17 0 0 6 2 13 5 3 2 11 11 11 11l306 304c0 0 9-6 14-1 5 4-5 12-5 12l50 42c0-2 5 3 1 6z"/>
<glyph unicode="&#57404;" d="M288 280l190 53c-19 67-69 115-130 135z m-108 141c-105-29-166-139-136-244 30-105 139-166 244-137 106 30 167 140 137 245-1 4-3 9-4 13l-1 0-13-4 0 1c0 0 0 0 0-1l-151-42 48 149c0 0 0 0 0 0l0 0 4 14c-5 2-9 3-14 5l0-1c-35 12-75 13-114 2z m54-190l177 50c28-98-29-199-127-227-97-28-199 29-227 127-27 97 30 199 127 227 36 10 73 8 106-2z"/>
<glyph unicode="&#57405;" d="M129 139c0 0-7-2-15-3-8-2-22-14-30-27l-22-33c-8-13-13-26-10-29l5-5c0 0 2-2 5-5 2-2 15 2 28 11l33 22c13 8 25 22 26 30l3 15 78 78-23 24z m285 302c3 3 7 3 10 0 3-3 3-8 0-10l-127-129 18-18 127 129c3 2 7 2 10 0 3-3 3-8 0-11l-127-128 16-16c0 0 13 13 13 13l12 12 98 99c19 19 19 51 0 70-20 20-51 20-71 0l-96-97-13-13c0 0-13-13-13-13l16-17z m8-297c-46 44-126 127-164 165-15 16-25 50-25 50 2 10 2 19 2 28-3 23-12 45-29 63-23 23-54 32-84 29-15-2-18-16-7-27l40-40c8-9 8-24-1-33l-24-24c-9-9-24-9-32 0l-38 38c-11 11-25 8-26-8-2-28 7-57 29-79 16-16 35-25 56-28 9-2 19-2 29-1 6-6 14 12 22 3 45-45 125-126 167-168 22-22 37-62 37-62 23-23 60-23 83 0 11 11 17 26 17 42 0 16-4 31-17 42-16 14-25 3-35 10z m17-76c-12-12-32-12-44 0-12 12-12 32 0 44 12 12 32 12 44 0 12-12 12-32 0-44z"/>
<glyph unicode="&#57406;" d="M291 479l-70 0 0-188-188 0 0-70 188 0 0-188 70 0 0 188 188 0 0 70-188 0z"/>
<glyph unicode="&#57407;" d="M285 291l-253 0 0-70 448 0 0 70z"/>
<glyph unicode="&#57408;" d="M478 229c1 9 2 18 2 27 0 9-1 18-2 27l-74 12c-4 13-9 26-16 38l44 61c-11 14-24 27-38 38l-61-44c-12 7-25 12-38 16l-12 74c-9 1-18 2-27 2-9 0-18-1-27-2l-12-74c-13-4-26-9-38-16l-61 44c-14-11-27-24-38-38l44-61c-7-12-12-25-16-38l-74-12c-1-9-2-18-2-27 0-9 1-18 2-27l74-12c4-13 9-26 16-38l-44-61c11-14 24-27 38-38l61 44c12-7 25-12 38-16l12-74c9-1 18-2 27-2 9 0 18 1 27 2l12 74c13 4 26 9 38 16l61-44c14 11 27 24 38 38l-44 61c7 12 12 25 16 38z m-222-75c-57 0-102 45-102 102 0 57 45 102 102 102 57 0 102-45 102-102 0-57-45-102-102-102z"/>
<glyph unicode="&#57409;" d="M475 178l-127-148-127 148 98 0-1 286 60 0-1-286z m-245 237l0-40-198 0 0 40z m-50-99l0-40-148 0 0 40z m-49-99l0-39-99 0 0 39z m-50-99l0-39-49 0 0 39z"/>
<glyph unicode="&#57410;" d="M406 182c-17 0-32-6-45-16l-183 90c0 0 0 0 0 0 0 0 0 0 0 0l183 89c13-10 28-16 45-16 41 0 74 33 74 74 0 40-33 73-74 73-40 0-73-33-73-73 0 0 0 0 0 0l-184-89c-12 9-28 16-45 16-40 0-73-33-73-74 0-41 33-73 73-73 17 0 33 6 45 15l184-89c0 0 0 0 0 0 0-41 33-74 73-74 41 0 74 33 74 74 0 40-33 73-74 73z"/>
<glyph unicode="&#57411;" d="M446 477l23-142-141 23 44 45c-74 59-180 53-248-15-72-73-73-192 0-264 73-73 191-73 264 0 37 37 57 88 54 141 0 1 1 2 3 2l31 2c1 0 1 0 2 0 0-1 1-2 1-2 3-63-21-125-65-169-87-87-229-87-316 0-87 87-87 229 1 316 39 40 92 63 147 65 56 3 109-15 152-50 0 0 0 0 0 0z"/>
<glyph unicode="&#57412;" d="M256 479c-123 0-223-100-223-223 0-124 100-224 223-224 124 0 224 100 224 224 0 123-100 223-224 223z m0-417c-101 0-193 93-193 194 0 101 92 193 193 193 101 0 194-92 194-193 0-101-93-194-194-194z m-60 306c15 17 36 25 62 25 25 0 45-7 60-21 14-14 22-32 22-53 0-13-3-24-8-32-6-8-17-20-33-36-12-12-20-21-24-29-4-8-5-20-5-36l-33 0c0 18 2 32 6 43 4 11 14 23 28 37l15 15c5 4 8 8 11 13 5 8 8 16 8 25 0 12-4 23-11 32-8 8-20 13-37 13-21 0-35-8-44-23-4-9-7-21-7-37l-33 0c0 27 7 48 23 64z m40-208l34 0 0-34-34 0z"/>
<glyph unicode="&#57413;" d="M378 480l-346 0 0-346 346 0z m-30-316l-285 0 0 285 285 0z m61 214l0-30 40 0 0-285-285 0 0 40-30 0 0-71 346 0 0 346z"/>
<glyph unicode="&#57414;" d="M367 256l-111 192-111-192-111-192 444 0z m-91-164l-40 0 0 41 40 0z m0 71l-40 0 0 202 40 0z"/>
<glyph unicode="&#57415;" d="M258 482c-125 0-226-101-226-226 0-125 101-226 226-226 124 0 225 101 225 226 0 125-101 226-225 226z m-152-226c0 83 68 151 152 151 28 0 55-8 77-21l-207-208c-14 23-22 50-22 78z m152-151c-29 0-55 8-78 21l207 208c14-23 22-50 22-78 0-83-68-151-151-151z"/>
<glyph unicode="&#57416;" d="M423 389l0-355-334 0 0 355-51 0 0 30 91 0 21 61 213 0 20-61 91 0 0-30z m-91 61l-152 0-20-31 192 0z m-213-61l0-335 274 0 0 335z m203-41l30 0 0-243-30 0z m-81 0l30 0 0-243-30 0z m-81 0l30 0 0-243-30 0z"/>
<glyph unicode="&#57417;" d="M125 231l0-40-82 1c-17 0-21 0-37-1-3-1-3 3-1 4 18 9 20 4 20 30l0 71c0 19-5 19-20 24-2 1-1 4 1 4l115 0 0-35c1-2-2-1-3 1-1 5-10 19-12 20l-49 0 0-42 41 0c3 1 8 9 11 18 1 3 3 1 3 0-1-13 0-38 0-48 0-4-2-5-3-1-1 3-7 14-11 17l-41 0 0-47 53 0c3 2 11 19 11 23 1 2 4 2 4 1z m25 94l54-1 41-85 43 84c0 0 33 0 36 0 3 0 15 1 17 1 2 0 2-3 1-4-2-1-20-8-22-11l11-103c2-4 20-11 23-12 2 0 1-3 0-3-11 1-63 1-75 0-1 0-6 2 0 3 6 2 17 6 20 11l-7 90-52-104-8 0-47 102-8-87c3-7 19-10 20-11 2-1 2-3 1-3-11 1-53 0-58 0-2-1-6 2-1 4 15 4 20 0 23 34l9 74c1 13-15 14-22 17-1 0-2 4 1 4z m311-34l1 34c-15 2-53 8-84-15-32-24-41-85 1-112 28-18 79-6 83-4 1 1 3 2 3 3 0 2 0 32 0 34 0 1-2 1-3 0-1-2-7-24-12-26-12-7-41-10-56 20-10 20-10 47 4 72 15 26 43 18 46 16 6-3 10-12 13-22 1-4 4-3 4 0z m11 51c15 15 29 10 34 5 5-5 8-16-4-27-5-6-17-15-17-15 0 0 19 0 18 0 2 1 5 7 7 9 0 1 1 1 1-1 0-1 0-19 0-19-5 1-36 1-41 1l0 6c8 6 16 15 22 23 6 7 5 27-16 15-3-2-6 0-4 3z m13-122c6 0 10-4 10-10 0-6-4-10-10-10-6 0-11 4-11 10 0 6 5 10 11 10z m0-1c-5 0-9-4-9-9 0-5 4-9 9-9 4 0 8 4 8 9 0 5-4 9-8 9z m-2-15l-2 0 0 12c1 0 2 0 3 0 2 0 3-1 4-1 1-1 1-1 1-2 0-2-1-3-2-3l0 0c1-1 1-1 2-3 0-2 0-3 0-3l-2 0c0 0 0 1 0 3-1 1-1 2-3 2l-1 0z m0 6l1 0c2 0 3 1 3 2 0 1-1 2-3 2 0 0-1 0-1 0z m2 10c6 0 10-4 10-10 0-6-4-10-10-10-6 0-11 4-11 10 0 6 5 10 11 10z m0-1c-5 0-9-4-9-9 0-5 4-9 9-9 4 0 8 4 8 9 0 5-4 9-8 9z m-2-15l-2 0 0 12c1 0 2 0 3 0 2 0 3-1 4-1 1-1 1-1 1-2 0-2-1-3-2-3l0 0c1-1 1-1 2-3 0-2 0-3 0-3l-2 0c0 0 0 1 0 3-1 1-1 2-3 2l-1 0z m0 6l1 0c2 0 3 1 3 2 0 1-1 2-3 2 0 0-1 0-1 0z"/>
<glyph unicode="&#57418;" d="M284 31l-83 327-47-135-106 0c-10 0-18 6-18 14 0 8 8 14 18 14l78 0 80 228 81-314 52 179 65-93 58 0c10 0 18-6 18-14 0-8-8-14-18-14l-79 0-30 43z"/>
<glyph unicode="&#57419;" d="M321 406l0-29c58-27 102-87 102-152 0-87-80-167-167-167-87 0-167 80-167 167 0 65 44 125 102 152l0 29c-74-26-128-97-128-181 0-107 86-193 193-193 107 0 193 86 193 193 0 84-54 155-128 181z m-92 72l56 0 0-203-56 0z"/>
<glyph unicode="&#57420;" d="M256 480c-62 0-112-50-112-112l0-224c0-62 34-112 96-112 62 0 80 50 80 112l-1 127 1 0c0 62-2 112-64 112-62 0-64-50-64-112l0-144 16 0 0 144c0 53-5 96 48 96 50 0 48-37 48-86l0 0 0-137c0-53-11-96-64-96-53 0-80 43-80 96l0 224c0 53 43 96 96 96 53 0 96-43 96-96l0-249 16 0 0 249c0 62-50 112-112 112z"/>
<glyph unicode="&#57421;" d="M112 108l288 0c44 0 80 45 80 100l0 96c0 55-36 100-80 100l-288 0c-44 0-80-45-80-100l0-96c0-55 36-100 80-100z m-48 196c0 33 22 60 48 60l288 0c26 0 48-27 48-60l0-96c0-33-22-60-48-60l-288 0c-26 0-48 27-48 60z m116-135c-48 0-87 39-87 87 0 48 39 87 87 87 48 0 87-39 87-87 0-48-39-87-87-87z"/>
<glyph unicode="&#57422;" d="M400 404l-288 0c-44 0-80-45-80-100l0-96c0-55 36-100 80-100l288 0c44 0 80 45 80 100l0 96c0 55-36 100-80 100z m48-196c0-33-22-60-48-60l-288 0c-26 0-48 27-48 60l0 96c0 33 22 60 48 60l288 0c26 0 48-27 48-60z m-116 135c48 0 87-39 87-87 0-48-39-87-87-87-48 0-87 39-87 87 0 48 39 87 87 87z"/>
<glyph unicode="&#57423;" d="M201 481l-32 0c0 0 0-9 16-24 16-16 33-13 33-13l-17-152c0 0-24-4-36-13-15-13-20-35-20-35l94 0 10-178 7-34 7 35 10 177 94 0c0 0-5 22-20 35-12 9-36 13-36 13l-17 152c0 0 17-3 33 13 16 15 16 24 16 24z"/>
<glyph unicode="&#57424;" d="M103 358l-44-202 14 253 326 0 0 31-214 0-31 40-122 0 0-448 377 0 71 326z m275-295l-305 0 61 265 306 0z"/>
<glyph unicode="&#57425;" d="M478 405c0 41-99 75-222 75-123 0-222-34-222-75 0-42 99-75 222-75 123 0 222 33 222 75z m-222-121c-94 0-174 19-207 47l-16 0c0-42 100-75 223-75 123 0 223 33 223 75l-16 0c-33-28-113-47-207-47z m0-75c-94 0-174 19-207 47l-16 0c0-41 100-75 223-75 123 0 223 34 223 75l-16 0c-33-28-113-47-207-47z m0-75c-94 0-174 20-207 47l-16 0c0-41 100-74 223-74 123 0 223 33 223 74l-16 0c-33-27-113-47-207-47z m0-75c-94 0-174 20-207 48l-16 0c0-42 100-75 223-75 123 0 223 33 223 75l-16 0c-33-28-113-48-207-48z"/>
<glyph unicode="&#57426;" d="M480 225c0 59-71 106-159 106-88 0-159-47-159-106 0-58 71-106 159-106 18 0 36 2 53 6l71-44-7 73c26 19 42 44 42 71z m-334 0c0 68 78 123 175 123 8 0 16-1 24-2-19 45-80 77-153 77-87 0-158-47-158-106 0-27 15-52 41-71l-7-73 72 44c2 0 4-1 6-1 0 3 0 6 0 9z"/>
<glyph unicode="&#57427;" d="M476 265c0 30-24 54-54 54 0 0-1 0-2 0 13 15 20 34 20 55 0 47-38 86-86 86-22 0-43-9-58-23-1 1-1 2-2 3-6 11-17 24-37 31-12 6-25 9-39 9-50 0-91-41-91-91 0-9 1-17 4-25-3 0-5 0-7 0-49 0-88-39-88-88 0-26 13-48 31-65l117 0c0 0 0 0 0 0l259 0c0 0 10 6 19 17 9 10 14 23 14 37z m-207-227l-26 0 0 92-43 0 56 65 56-65-43 0z"/>
<glyph unicode="&#57428;" d="M476 265c0 30-24 54-54 54 0 0-1 0-2 0 13 15 20 34 20 55 0 47-38 86-86 86-22 0-43-9-58-23-1 1-1 2-2 3-6 11-17 24-37 31-12 6-25 9-39 9-50 0-91-41-91-91 0-9 1-17 4-25-3 0-5 0-7 0-49 0-88-39-88-88 0-26 13-48 31-65l117 0c0 0 0 0 0 0l259 0c0 0 10 6 19 17 9 10 14 23 14 37z m-207-162l43 0-56-65-56 65 43 0 0 92 26 0z"/>
<glyph unicode="&#57429;" d="M284 269l101 0-131-153-130 153 100 0 0 213 61 0z m-253-208l447 0 0-31-447 0z"/>
<glyph unicode="&#57430;" d="M107 458l40 0 0-426-40 0z m340-200c0 0-27-22-74-21-47 2-114 43-147 42-33-1-61-21-61-21l0 196c0 0 22 20 61 21 38 1 108-43 147-42 38 1 74 21 74 21z"/>
<glyph unicode="&#57431;" d="M78 388l1 21 354 0 0 31-233 0-33 40-132 0 0-448 415 0 27 356z m334-323l-332 0 26 290 332 0z"/>
<glyph unicode="&#57432;" d="M103 358l-44-202 14 253 326 0 0 31-214 0-31 40-122 0 0-448 377 0 71 326z m275-295l-305 0 61 265 306 0z m-108 118l46 0-60-70-60 70 46 0 0 98 28 0z"/>
<glyph unicode="&#57433;" d="M475 77l-130 114c25 30 40 69 40 112 0 98-78 177-174 177-96 0-174-79-174-177 0-97 78-177 174-177 41 0 78 15 108 39l111-133z m-264 82c-78 0-141 65-141 144 0 80 63 144 141 144 78 0 141-64 141-144 0-79-63-144-141-144z"/>
<glyph unicode="&#57434;" d="M32 277l50 0 0-42-50 0z m0 142l50 0 0-41-50 0z m0-286l50 0 0-42-50 0z m77 0l371 0 0-42-371 0z m0 286l371 0 0-41-371 0z m0-142l371 0 0-42-371 0z"/>
<glyph unicode="&#57435;" d="M33 154l34-23 184 191 194-191 34 23-231 227z"/>
<glyph unicode="&#57436;" d="M152 30l-24 35 196 186-196 196 24 35 232-234z"/>
<glyph unicode="&#57437;" d="M358 33l23 34-191 184 191 194-23 34-227-231z"/>
<glyph unicode="&#57438;" d="M479 358l-34 23-184-191-194 191-34-23 231-227z"/>
<glyph unicode="&#57439;" d="M256 478c-123 0-222-99-222-222 0-123 99-223 222-223 123 0 222 100 222 223 0 123-99 222-222 222z m0-414c-100 0-192 91-192 192 0 100 92 192 192 192 100 0 192-92 192-192 0-101-92-192-192-192z m20 263l-40 0 0-203 40 0z m0 70l-40 0 0-40 40 0z"/>
<glyph unicode="&#57440;" d="M416 393l-320 0-64-160 0-114 448 0 0 114z m-309-16l298 0 51-128-107 0-31-64-124 0-31 64-107 0z"/>
<glyph unicode="&#57441;" d="M32 419l0-41 448 0 0 41z m0-183l448 0 0 40-448 0z m0-143l448 0 0 41-448 0z"/>
<glyph unicode="&#57442;" d="M270 220l-24 19c-7 6-17 14-17 28 0 15 10 24 19 33 28 22 55 45 55 94 0 51-31 77-47 90l41 0 43 27-130 0c-36 0-88-9-125-40-29-24-43-58-43-89 0-52 40-104 110-104 7 0 14 1 21 1-3-8-6-14-6-26 0-20 10-33 20-45-30-2-86-5-127-30-39-24-51-57-51-81 0-49 47-95 143-95 114 0 174 63 174 125 0 46-27 69-56 93z m-87 77c-57 0-82 73-82 118 0 17 3 35 14 49 11 13 29 22 47 22 55 0 83-75 83-122 0-12-1-34-17-49-10-11-28-18-45-18z m1-267c-71 0-116 34-116 81 0 47 42 63 56 68 28 9 64 11 70 11 7 0 10 0 15-1 51-36 72-54 72-88 0-41-33-71-97-71z m254 268l0 66-33 0 0-66-66 0 0-33 66 0 0-68 33 0 0 68 66 0 0 33z"/>
</font>
</defs>
</svg>
